<svg width="148" height="71" viewBox="0 0 148 71" fill="none" xmlns="http://www.w3.org/2000/svg">
<path d="M112.724 42.2118L112.692 42.5101L112.724 42.2118ZM0.00976562 42.2118L3.44659 41.778L1.35246 39.0185L0.00976562 42.2118ZM2.75366 41.0464C3.30499 40.8451 3.94107 40.6446 4.6674 40.4475L4.51023 39.8684C3.77047 40.0692 3.11787 40.2747 2.54796 40.4827L2.75366 41.0464ZM6.61138 39.9769C7.22371 39.8442 7.88178 39.7143 8.58736 39.5882L8.48179 38.9976C7.76964 39.1249 7.10436 39.2561 6.4843 39.3905L6.61138 39.9769ZM10.5814 39.2616C11.2166 39.1662 11.8834 39.0738 12.5826 38.9847L12.5068 38.3895C11.8034 38.4791 11.1322 38.5721 10.4923 38.6682L10.5814 39.2616ZM14.589 38.7485C15.236 38.6782 15.9072 38.6107 16.603 38.5462L16.5476 37.9488C15.8488 38.0135 15.1745 38.0814 14.5242 38.152L14.589 38.7485ZM18.6291 38.3727C19.2843 38.3211 19.9589 38.272 20.6536 38.2256L20.6136 37.6269C19.9167 37.6734 19.2396 37.7227 18.582 37.7746L18.6291 38.3727ZM22.6576 38.1028C23.3167 38.0659 23.9923 38.0314 24.6845 37.9993L24.6568 37.4C23.9626 37.4321 23.2851 37.4667 22.624 37.5038L22.6576 38.1028ZM26.7203 37.9143C27.3749 37.8898 28.0433 37.8675 28.7258 37.8474L28.7081 37.2477C28.0241 37.2678 27.3541 37.2902 26.6979 37.3147L26.7203 37.9143ZM30.7695 37.7951C31.4269 37.7808 32.0966 37.7684 32.7786 37.7581L32.7696 37.1582C32.0862 37.1685 31.4152 37.1809 30.7563 37.1953L30.7695 37.7951ZM34.8121 37.7342C35.4748 37.7285 36.1484 37.7247 36.8333 37.7229L36.8317 37.1229C36.1457 37.1247 35.4708 37.1285 34.807 37.1342L34.8121 37.7342ZM38.862 37.7233C39.5265 37.7253 40.201 37.7292 40.8855 37.7349L40.8905 37.1349C40.2049 37.1292 39.5294 37.1254 38.8638 37.1233L38.862 37.7233ZM42.9164 37.7569C43.5802 37.7657 44.253 37.7763 44.935 37.7886L44.9458 37.1887C44.2629 37.1763 43.5891 37.1658 42.9244 37.1569L42.9164 37.7569ZM46.9756 37.83C47.6367 37.845 48.306 37.8615 48.9836 37.8797L48.9997 37.2799C48.3213 37.2617 47.6511 37.2451 46.9892 37.2302L46.9756 37.83ZM51.0415 37.9391C51.6986 37.9595 52.3631 37.9813 53.0353 38.0047L53.0561 37.4051C52.3832 37.3817 51.7179 37.3598 51.0601 37.3394L51.0415 37.9391ZM55.074 38.0795C55.7403 38.1052 56.4138 38.1324 57.0945 38.161L57.1198 37.5616C56.4383 37.5329 55.7641 37.5057 55.0971 37.48L55.074 38.0795ZM59.1115 38.2495C59.7896 38.2803 60.4746 38.3127 61.1667 38.3465L61.196 37.7472C60.5032 37.7134 59.8175 37.681 59.1388 37.6501L59.1115 38.2495ZM63.16 38.4471C63.8308 38.482 64.508 38.5183 65.1916 38.5559L65.2246 37.9568C64.5404 37.9191 63.8626 37.8828 63.1911 37.8479L63.16 38.4471ZM67.2257 38.671C67.8877 38.7095 68.5555 38.7492 69.2293 38.7902L69.2657 38.1913C68.5914 38.1503 67.923 38.1105 67.2605 38.072L67.2257 38.671ZM71.2682 38.9172C71.9364 38.9598 72.6103 39.0036 73.2898 39.0487L73.3296 38.45C72.6495 38.4049 71.9751 38.361 71.3064 38.3184L71.2682 38.9172ZM75.2975 39.1844C75.9721 39.2309 76.6522 39.2787 77.3378 39.3276L77.3805 38.7292C76.6945 38.6801 76.0138 38.6324 75.3387 38.5859L75.2975 39.1844ZM79.3561 39.4743C80.02 39.5233 80.6888 39.5735 81.3627 39.6249L81.4083 39.0266C80.7339 38.9752 80.0646 38.925 79.4004 38.8759L79.3561 39.4743ZM83.3995 39.7825C84.0695 39.8352 84.7443 39.8889 85.424 39.9438L85.4723 39.3458C84.7922 39.2908 84.1169 39.237 83.4465 39.1844L83.3995 39.7825ZM87.4254 40.1077C88.0972 40.1634 88.7737 40.2202 89.4548 40.2782L89.5057 39.6803C88.8241 39.6223 88.1472 39.5655 87.475 39.5097L87.4254 40.1077ZM91.4947 40.4538C92.1547 40.5113 92.819 40.5699 93.4876 40.6295L93.5409 40.0319C92.8718 39.9722 92.2072 39.9136 91.5468 39.8561L91.4947 40.4538ZM95.5065 40.8114C96.1839 40.8732 96.8656 40.9359 97.5517 40.9998L97.6073 40.4023C96.9208 40.3385 96.2387 40.2757 95.561 40.2139L95.5065 40.8114ZM99.5525 41.1878C100.217 41.2509 100.886 41.3149 101.558 41.38L101.616 40.7828C100.943 40.7177 100.274 40.6536 99.6092 40.5905L99.5525 41.1878ZM103.589 41.5782C104.263 41.6446 104.942 41.7121 105.624 41.7805L105.684 41.1835C105.001 41.115 104.322 41.0475 103.648 40.9811L103.589 41.5782ZM107.615 41.9818C108.283 42.0499 108.954 42.1189 109.629 42.1888L109.691 41.592C109.015 41.522 108.344 41.453 107.676 41.3849L107.615 41.9818ZM111.665 42.4016C112.007 42.4375 112.349 42.4737 112.692 42.5101L112.756 41.9135C112.412 41.877 112.07 41.8408 111.728 41.8049L111.665 42.4016ZM112.692 42.5101C113.046 42.5476 113.396 42.5854 113.743 42.6236L113.809 42.0272C113.461 41.989 113.11 41.951 112.756 41.9135L112.692 42.5101ZM115.788 42.8566C116.458 42.9355 117.114 43.0158 117.759 43.0973L117.834 42.502C117.188 42.4203 116.529 42.3398 115.858 42.2607L115.788 42.8566ZM119.657 43.3455C120.277 43.4295 120.886 43.5147 121.482 43.6011L121.568 43.0073C120.97 42.9207 120.36 42.8352 119.737 42.751L119.657 43.3455ZM123.556 43.9137C124.232 44.0198 124.892 44.1274 125.535 44.2367L125.635 43.6452C124.99 43.5355 124.328 43.4274 123.649 43.321L123.556 43.9137ZM127.416 44.569C128.051 44.6859 128.67 44.8044 129.271 44.9244L129.388 44.3361C128.784 44.2154 128.163 44.0963 127.524 43.9789L127.416 44.569ZM131.305 45.3508C131.959 45.4949 132.591 45.6411 133.201 45.7891L133.343 45.206C132.729 45.0569 132.092 44.9098 131.434 44.7648L131.305 45.3508ZM134.99 46.2459C135.692 46.4348 136.361 46.6265 136.997 46.8207L137.172 46.2469C136.53 46.0506 135.854 45.857 135.145 45.6665L134.99 46.2459ZM138.804 47.4104C139.463 47.6406 140.079 47.8737 140.653 48.1095L140.881 47.5545C140.296 47.3143 139.67 47.0773 139.002 46.8439L138.804 47.4104ZM142.409 48.9029C143.048 49.2221 143.615 49.5446 144.113 49.8695L144.441 49.3667C143.92 49.0277 143.333 48.6941 142.677 48.3662L142.409 48.9029ZM145.573 51.0003C146.087 51.4879 146.457 51.9741 146.702 52.4551L147.237 52.1835C146.955 51.6298 146.539 51.0899 145.985 50.5648L145.573 51.0003ZM147.067 54.2083C147.024 54.7704 146.831 55.3444 146.495 55.9287L147.014 56.2284C147.387 55.5827 147.614 54.9229 147.666 54.2548L147.067 54.2083ZM145.326 57.4361C144.912 57.8637 144.43 58.291 143.884 58.7162L144.253 59.1894C144.817 58.7502 145.321 58.3045 145.757 57.8535L145.326 57.4361ZM142.321 59.8198C141.792 60.1612 141.225 60.4995 140.624 60.8339L140.916 61.3582C141.527 61.0182 142.105 60.6732 142.646 60.324L142.321 59.8198ZM138.897 61.7384C138.328 62.0198 137.735 62.2976 137.122 62.5713L137.367 63.1191C137.987 62.8426 138.586 62.5614 139.163 62.2763L138.897 61.7384ZM135.309 63.3443C134.716 63.5862 134.107 63.8241 133.485 64.0577L133.696 64.6194C134.323 64.3839 134.937 64.144 135.536 63.8999L135.309 63.3443ZM131.632 64.7266C131.02 64.939 130.398 65.1472 129.767 65.3508L129.951 65.9219C130.586 65.7169 131.213 65.5073 131.829 65.2934L131.632 64.7266ZM127.891 65.9341C127.266 66.1217 126.633 66.3048 125.994 66.4831L126.155 67.061C126.798 66.8818 127.434 66.6976 128.064 66.5088L127.891 65.9341ZM124.101 66.9926C123.466 67.1573 122.826 67.3172 122.183 67.4719L122.323 68.0552C122.97 67.8997 123.613 67.739 124.251 67.5733L124.101 66.9926ZM120.271 67.9144C119.631 68.0567 118.989 68.1937 118.346 68.3251L118.466 68.9129C119.112 68.7808 119.758 68.6431 120.401 68.5001L120.271 67.9144ZM116.411 68.7032C115.766 68.8235 115.12 68.938 114.477 69.0463L114.576 69.638C115.223 69.5291 115.872 69.414 116.521 69.293L116.411 68.7032ZM112.53 69.3556C111.877 69.4532 111.227 69.5441 110.58 69.6281L110.658 70.2231C111.308 70.1386 111.962 70.0471 112.619 69.949L112.53 69.3556ZM108.634 69.8611C107.972 69.9336 107.315 69.9982 106.665 70.0546L106.717 70.6524C107.371 70.5955 108.033 70.5305 108.699 70.4576L108.634 69.8611ZM104.726 70.2C104.053 70.2422 103.39 70.2749 102.738 70.2977L102.758 70.8973C103.416 70.8743 104.085 70.8414 104.764 70.7988L104.726 70.2ZM100.806 70.336C100.124 70.3387 99.4582 70.3294 98.8095 70.3075L98.7892 70.9072C99.4461 70.9293 100.12 70.9388 100.808 70.936L100.806 70.336ZM96.878 70.2008C96.1976 70.1473 95.5417 70.0778 94.9133 69.9916L94.8317 70.5861C95.4727 70.674 96.1402 70.7447 96.8311 70.7989L96.878 70.2008ZM92.9871 69.6555C92.3338 69.514 91.7221 69.3496 91.1562 69.1618L90.9672 69.7312C91.5562 69.9267 92.1888 70.0965 92.86 70.2419L92.9871 69.6555ZM89.3665 68.4063C88.7602 68.0805 88.2485 67.7137 87.8375 67.3056L87.4147 67.7315C87.8744 68.1878 88.4357 68.5873 89.0826 68.9348L89.3665 68.4063ZM86.8465 65.7905C86.6525 65.2546 86.5753 64.6593 86.6328 63.9977L86.0351 63.9457C85.9707 64.6866 86.0561 65.3699 86.2823 65.9948L86.8465 65.7905ZM87.0655 62.2077C87.2708 61.6659 87.5492 61.0901 87.9066 60.4791L87.3887 60.1762C87.0172 60.8113 86.7234 61.4173 86.5044 61.9951L87.0655 62.2077ZM88.9935 58.8437C89.3455 58.3672 89.7393 57.8733 90.1767 57.3615L89.7207 56.9717C89.275 57.4931 88.8722 57.9981 88.5109 58.4872L88.9935 58.8437ZM91.5038 55.8956C91.744 55.6436 91.9939 55.3879 92.2535 55.1282L91.8292 54.704C91.5664 54.9668 91.3132 55.226 91.0695 55.4816L91.5038 55.8956ZM92.2535 55.1282C92.491 54.8907 92.7255 54.6539 92.9571 54.4178L92.5286 53.9977C92.2985 54.2324 92.0653 54.4679 91.8292 54.704L92.2535 55.1282ZM94.3112 53.0089C94.7658 52.5262 95.208 52.0463 95.638 51.5693L95.1923 51.1675C94.7653 51.6412 94.326 52.1179 93.8744 52.5976L94.3112 53.0089ZM96.9261 50.107C97.3611 49.6014 97.7822 49.0991 98.1899 48.6002L97.7253 48.2206C97.3209 48.7155 96.903 49.2139 96.4713 49.7157L96.9261 50.107ZM99.3944 47.0857C99.8056 46.554 100.201 46.0262 100.582 45.5024L100.097 45.1496C99.7197 45.6685 99.3274 46.1916 98.9198 46.7187L99.3944 47.0857ZM101.704 43.9069C102.077 43.357 102.434 42.8116 102.775 42.2707L102.267 41.951C101.93 42.4859 101.577 43.0255 101.208 43.5698L101.704 43.9069ZM103.794 40.5836C104.127 40.0073 104.441 39.4364 104.737 38.8708L104.206 38.5924C103.913 39.1505 103.603 39.7142 103.274 40.2834L103.794 40.5836ZM105.603 37.1243C105.889 36.5146 106.153 35.9114 106.397 35.3147L105.841 35.0878C105.601 35.675 105.341 36.2691 105.06 36.87L105.603 37.1243ZM107.092 33.4733C107.312 32.8407 107.508 32.2158 107.682 31.5987L107.105 31.4358C106.934 32.0414 106.741 32.655 106.526 33.2768L107.092 33.4733ZM108.156 29.6916C108.296 29.0369 108.411 28.3915 108.502 27.7556L107.909 27.6705C107.819 28.2926 107.707 28.9244 107.569 29.5658L108.156 29.6916ZM108.711 25.7973C108.757 25.1291 108.776 24.4721 108.77 23.8265L108.17 23.832C108.176 24.4619 108.157 25.1033 108.112 25.7561L108.711 25.7973ZM108.672 21.8554C108.612 21.1898 108.524 20.5374 108.412 19.8983L107.821 20.0023C107.931 20.625 108.016 21.2608 108.075 21.9097L108.672 21.8554ZM107.988 17.97C107.818 17.3266 107.622 16.6981 107.403 16.0848L106.838 16.2866C107.051 16.8843 107.242 17.4967 107.408 18.1235L107.988 17.97ZM106.663 14.2558C106.389 13.652 106.093 13.0647 105.777 12.4939L105.252 12.7844C105.56 13.3416 105.849 13.9147 106.116 14.5035L106.663 14.2558ZM104.757 10.8078C104.393 10.2548 104.01 9.71947 103.613 9.20189L103.137 9.56758C103.526 10.0739 103.9 10.5974 104.256 11.1377L104.757 10.8078ZM102.357 7.68233C101.918 7.18684 101.466 6.71026 101.003 6.25273L100.581 6.6795C101.035 7.12801 101.478 7.59496 101.908 8.08022L102.357 7.68233ZM99.56 4.91546C99.059 4.47961 98.5499 4.06448 98.0361 3.67023L97.6708 4.14624C98.1751 4.5332 98.6747 4.94055 99.1662 5.36813L99.56 4.91546ZM96.4375 2.51884C95.8837 2.14491 95.3285 1.79476 94.7758 1.46856L94.4708 1.98528C95.0132 2.30536 95.5581 2.64903 96.1017 3.01608L96.4375 2.51884ZM93.0486 0.520875C92.7529 0.370736 92.4593 0.227737 92.1682 0.0919146L91.9145 0.635624C92.1995 0.76861 92.4872 0.908693 92.7769 1.05585L93.0486 0.520875Z" fill="#0F6F98"/>
</svg>
